<svg xmlns="http://www.w3.org/2000/svg" viewBox="0 0 100 100"><defs><style>.cls-1{fill:#00addb;}.cls-2{fill:#fff;}.cls-3{fill:#00a651;}.cls-3,.cls-4{stroke:#fff;stroke-miterlimit:10;}.cls-4{fill:#ed1c24;}</style></defs><title>fav100x100</title><g id="Layer_2" data-name="Layer 2"><g id="Layer_1-2" data-name="Layer 1"><rect class="cls-1" width="100" height="100"/><path class="cls-2" d="M19.4,55.93a5.51,5.51,0,0,1-4.17-1.68,6.23,6.23,0,0,1-1.61-4.51v-.4A7.53,7.53,0,0,1,14.34,46a5.45,5.45,0,0,1,2-2.31,5,5,0,0,1,2.8-.84A4.72,4.72,0,0,1,23,44.47a7,7,0,0,1,1.37,4.64V50H15.78a4.44,4.44,0,0,0,1.09,3,3.4,3.4,0,0,0,2.65,1.15,3.79,3.79,0,0,0,1.94-.46,5,5,0,0,0,1.39-1.24l1.31,1A5.29,5.29,0,0,1,19.4,55.93Zm-.26-11.31a2.87,2.87,0,0,0-2.2,1,4.61,4.61,0,0,0-1.09,2.66h6.32v-.16a4.08,4.08,0,0,0-.89-2.55A2.71,2.71,0,0,0,19.14,44.62Z"/><path class="cls-2" d="M34.62,54.45a4.57,4.57,0,0,1-3.7,1.48,3.91,3.91,0,0,1-3.07-1.17,5.05,5.05,0,0,1-1.07-3.47V43.08h2.16v8.15c0,1.92.77,2.87,2.33,2.87a3.22,3.22,0,0,0,3.29-1.84V43.08h2.16V55.7h-2Z"/><path class="cls-2" d="M46.1,45A7,7,0,0,0,45,44.93a2.84,2.84,0,0,0-2.88,1.81v9H40V43.08h2.1l0,1.46a3.37,3.37,0,0,1,3-1.7,2.2,2.2,0,0,1,1,.17Z"/><path class="cls-2" d="M53.1,55.93a5.54,5.54,0,0,1-4.18-1.68,6.27,6.27,0,0,1-1.61-4.51v-.4A7.53,7.53,0,0,1,48,46a5.54,5.54,0,0,1,2-2.31,5,5,0,0,1,2.79-.84,4.75,4.75,0,0,1,3.83,1.63A7,7,0,0,1,58,49.11V50H49.47a4.49,4.49,0,0,0,1.09,3,3.42,3.42,0,0,0,2.66,1.15,3.75,3.75,0,0,0,1.93-.46,5,5,0,0,0,1.39-1.24l1.32,1A5.31,5.31,0,0,1,53.1,55.93Zm-.27-11.31a2.85,2.85,0,0,0-2.19,1,4.61,4.61,0,0,0-1.1,2.66h6.32v-.16A4.08,4.08,0,0,0,55,45.52,2.73,2.73,0,0,0,52.83,44.62Z"/><path class="cls-2" d="M64,49.86l-1.35,1.41V55.7H60.53V37.78h2.16V48.62l1.15-1.39,3.94-4.15H70.4l-4.91,5.27L71,55.7H68.44Z"/><path class="cls-2" d="M80.42,55.7a4.78,4.78,0,0,1-.3-1.33,4.81,4.81,0,0,1-3.59,1.56,4.49,4.49,0,0,1-3.07-1,3.44,3.44,0,0,1-1.19-2.68,3.57,3.57,0,0,1,1.5-3.06A7,7,0,0,1,78,48.05h2.1v-1a2.44,2.44,0,0,0-.67-1.81,2.76,2.76,0,0,0-2-.67,3.12,3.12,0,0,0-1.93.59,1.71,1.71,0,0,0-.79,1.41H72.52a3,3,0,0,1,.68-1.83A4.45,4.45,0,0,1,75,43.36a6.11,6.11,0,0,1,2.52-.52A5,5,0,0,1,81,43.94a3.92,3.92,0,0,1,1.28,3v5.81a7,7,0,0,0,.45,2.76v.19Zm-3.58-1.64a3.82,3.82,0,0,0,1.93-.53,3.17,3.17,0,0,0,1.31-1.36V49.58H78.39q-4,0-4,2.32a2,2,0,0,0,.67,1.58A2.56,2.56,0,0,0,76.84,54.06Z"/><path class="cls-2" d="M17.67,50l-9,0V37.79h2.18c0,3.5-.05,7,0,10.45h6.85C17.68,48.6,17.67,49.64,17.67,50Z"/><circle class="cls-3" cx="9.68" cy="39.68" r="3.68"/><path class="cls-2" d="M89.62,50.67a1.58,1.58,0,0,0-1.36.66,6.55,6.55,0,0,0-.84,2.3,10.43,10.43,0,0,1-.84,2.6,3.63,3.63,0,0,1-1.16,1.43,2.85,2.85,0,0,1-1.61.46,3.26,3.26,0,0,1-2.63-1.31,4.65,4.65,0,0,1-.76-1.11s1.53-.17,2.27-.18a1.15,1.15,0,0,0,.25.48,1.06,1.06,0,0,0,1,.52c.52,0,1-.6,1.18-1.06a20.41,20.41,0,0,0,.6-2.35,11.76,11.76,0,0,1,.87-2.62A3.76,3.76,0,0,1,87.74,49a3,3,0,0,1,1.73-.48,3.38,3.38,0,0,1,1.51.33,3.49,3.49,0,0,1,1.2,1,5.55,5.55,0,0,1,1,3.51H91.44a3.52,3.52,0,0,0-.5-2A1.51,1.51,0,0,0,89.62,50.67Z"/><polyline class="cls-2" points="93.2 53.38 93.2 58.12 91.44 58.12 91.44 53.38"/><circle class="cls-4" cx="92.32" cy="58.12" r="3.68"/></g></g></svg>