<svg xmlns="http://www.w3.org/2000/svg" viewBox="0 0 181 24"><defs><style>.cls-1{fill:#f3f3f3;}.cls-2{fill:#b4b4b4;}.cls-3{fill:#010101;}</style></defs><title>form</title><g id="Layer_2" data-name="Layer 2"><g id="Layer_1-2" data-name="Layer 1"><rect class="cls-1" x="0.5" y="0.5" width="180" height="23"/><path class="cls-2" d="M181,24H0V0H181ZM1,23H180V1H1Z"/><path class="cls-3" d="M13.07,16.16a3.1,3.1,0,0,1-2.27-.85A3,3,0,0,1,9.92,13v-.17a3.76,3.76,0,0,1,.37-1.7A2.69,2.69,0,0,1,11.34,10a2.84,2.84,0,0,1,1.54-.41,2.62,2.62,0,0,1,2,.82,3.32,3.32,0,0,1,.75,2.32v.7h-4a1.57,1.57,0,0,0,.49,1,1.52,1.52,0,0,0,1,.38,1.84,1.84,0,0,0,1.53-.71l.83.93a2.52,2.52,0,0,1-1,.84A3.37,3.37,0,0,1,13.07,16.16ZM12.88,11a1.08,1.08,0,0,0-.82.34,1.73,1.73,0,0,0-.4,1H14v-.13a1.31,1.31,0,0,0-.3-.88A1.13,1.13,0,0,0,12.88,11Z"/><path class="cls-3" d="M18.22,9.71l.06.7a2.22,2.22,0,0,1,1.82-.82,1.68,1.68,0,0,1,1.68,1,2.19,2.19,0,0,1,1.91-1,1.9,1.9,0,0,1,1.53.6,2.73,2.73,0,0,1,.5,1.81v4H24V12a1.17,1.17,0,0,0-.22-.79.94.94,0,0,0-.74-.25,1.05,1.05,0,0,0-1.05.73V16H20.33V12a1.18,1.18,0,0,0-.22-.8,1,1,0,0,0-.74-.25,1.09,1.09,0,0,0-1,.6V16H16.64V9.71Z"/><path class="cls-3" d="M30.7,16a1.68,1.68,0,0,1-.17-.56,2.06,2.06,0,0,1-1.6.68,2.23,2.23,0,0,1-1.54-.54,1.73,1.73,0,0,1-.62-1.36,1.78,1.78,0,0,1,.75-1.54,3.74,3.74,0,0,1,2.16-.55h.78v-.36a1,1,0,0,0-.23-.7.86.86,0,0,0-.71-.27,1,1,0,0,0-.67.21.68.68,0,0,0-.24.56h-1.7a1.73,1.73,0,0,1,.34-1,2.34,2.34,0,0,1,1-.74,3.68,3.68,0,0,1,1.4-.26,2.73,2.73,0,0,1,1.86.59,2,2,0,0,1,.69,1.65v2.75A3.07,3.07,0,0,0,32.41,16V16Zm-1.4-1.17A1.47,1.47,0,0,0,30,14.7a1.08,1.08,0,0,0,.47-.45V13.16h-.63c-.85,0-1.3.3-1.36.88v.1a.66.66,0,0,0,.22.52A.85.85,0,0,0,29.3,14.87Z"/><path class="cls-3" d="M33.45,8.06a.81.81,0,0,1,.25-.62,1.09,1.09,0,0,1,1.39,0,.82.82,0,0,1,.26.62.84.84,0,0,1-.27.64,1.1,1.1,0,0,1-1.37,0A.83.83,0,0,1,33.45,8.06Zm1.8,8h-1.7V9.71h1.7Z"/><path class="cls-3" d="M38.43,16h-1.7V7h1.7Z"/></g></g></svg>