<svg xmlns="http://www.w3.org/2000/svg" viewBox="0 0 671.18 119.79"><defs><style>.cls-1{font-size:89.56px;font-family:Roboto-Regular, Roboto;}.cls-1,.cls-3{fill:#fff;}.cls-2{letter-spacing:-0.01em;}.cls-4{fill:#00a551;}.cls-4,.cls-5{stroke:#fff;stroke-miterlimit:10;stroke-width:5px;}.cls-5{fill:#ec1c24;}</style></defs><title>logo-lg</title><g id="Layer_2" data-name="Layer 2"><g id="header"><text class="cls-1" transform="translate(201.66 76.62)">eu<tspan class="cls-2" x="96.82" y="0">r</tspan><tspan x="126.3" y="0">eka</tspan></text><path class="cls-3" d="M220.9,55.25c-11.26,0-22.51.14-33.77.19V9.5h8.18c0,13.08-.17,26.09,0,39.13H221C221,50,220.93,53.9,220.9,55.25Z"/><circle class="cls-4" cx="190.97" cy="16.56" r="13.79"/><path class="cls-3" d="M490.6,57.78a5.94,5.94,0,0,0-5.09,2.47c-1.21,1.65-2.26,4.52-3.13,8.61a40.81,40.81,0,0,1-3.15,9.76A13.84,13.84,0,0,1,474.86,84a10.49,10.49,0,0,1-6,1.73c-3.88,0-6.78-1.43-9.84-4.92a17.32,17.32,0,0,1-2.86-4.15c0,.1,5.76-.65,8.5-.69a5,5,0,0,0,.95,1.83,4,4,0,0,0,3.57,1.94c1.95,0,3.72-2.25,4.42-4a72.94,72.94,0,0,0,2.26-8.8,43.15,43.15,0,0,1,3.24-9.82,14.31,14.31,0,0,1,4.52-5.58A11.15,11.15,0,0,1,490,49.69a12.08,12.08,0,0,1,10.17,5.07c3.84,4.88,3.89,11.07,3.83,13.16h-6.61a13.26,13.26,0,0,0-1.86-7.36A5.68,5.68,0,0,0,490.6,57.78Z"/><polyline class="cls-3" points="504.03 67.92 504.04 85.68 497.44 85.68 497.42 67.92"/><circle class="cls-5" cx="500.73" cy="85.68" r="13.79"/></g></g></svg>