<svg viewBox="0 0 671.18 119.79" xmlns="http://www.w3.org/2000/svg"><text fill="#fff" font-family="Roboto-Regular, Roboto" font-size="89.56" transform="translate(201.66 76.62)">eu<tspan letter-spacing="-.01em" x="96.82" y="0">r</tspan><tspan x="126.3" y="0">eka</tspan></text><path d="m220.9 55.25c-11.26 0-22.51.14-33.77.19v-45.94h8.18c0 13.08-.17 26.09 0 39.13h25.69c0 1.37-.07 5.27-.1 6.62z" fill="#fff"/><circle cx="190.97" cy="16.56" fill="#00a551" r="13.79" stroke="#fff" stroke-miterlimit="10" stroke-width="5"/><path d="m490.6 57.78a5.94 5.94 0 0 0 -5.09 2.47c-1.21 1.65-2.26 4.52-3.13 8.61a40.81 40.81 0 0 1 -3.15 9.76 13.84 13.84 0 0 1 -4.37 5.38 10.49 10.49 0 0 1 -6 1.73c-3.88 0-6.78-1.43-9.84-4.92a17.32 17.32 0 0 1 -2.86-4.15c0 .1 5.76-.65 8.5-.69a5 5 0 0 0 .95 1.83 4 4 0 0 0 3.57 1.94c1.95 0 3.72-2.25 4.42-4a72.94 72.94 0 0 0 2.26-8.8 43.15 43.15 0 0 1 3.24-9.82 14.31 14.31 0 0 1 4.52-5.58 11.15 11.15 0 0 1 6.38-1.85 12.08 12.08 0 0 1 10.17 5.07c3.84 4.88 3.89 11.07 3.83 13.16h-6.61a13.26 13.26 0 0 0 -1.86-7.36 5.68 5.68 0 0 0 -4.93-2.78z" fill="#fff"/><path d="m504.03 67.92.01 17.76h-6.6l-.02-17.76" fill="#fff"/><circle cx="500.73" cy="85.68" fill="#ec1c24" r="13.79" stroke="#fff" stroke-miterlimit="10" stroke-width="5"/></svg>