<svg xmlns="http://www.w3.org/2000/svg" viewBox="0 0 80 38"><defs><style>.cls-1{fill:#00addb;}.cls-2{fill:#fff;}</style></defs><title>more-button</title><g id="Layer_2" data-name="Layer 2"><g id="Layer_1-2" data-name="Layer 1"><rect class="cls-1" width="80" height="38" rx="7" ry="7"/><path class="cls-2" d="M16.22,12.35l.11,1.42A4.44,4.44,0,0,1,20,12.12a3.38,3.38,0,0,1,3.36,1.93,4.35,4.35,0,0,1,3.81-1.93,3.77,3.77,0,0,1,3.07,1.2,5.51,5.51,0,0,1,1,3.61V25h-3.4V16.94a2.42,2.42,0,0,0-.42-1.57,1.88,1.88,0,0,0-1.49-.5,2.11,2.11,0,0,0-2.11,1.45V25H20.43V17a2.39,2.39,0,0,0-.44-1.6,1.86,1.86,0,0,0-1.47-.49,2.2,2.2,0,0,0-2.09,1.2v9H13V12.35Z"/><path class="cls-2" d="M33.29,18.57A7.58,7.58,0,0,1,34,15.21a5.39,5.39,0,0,1,2.09-2.29,6.19,6.19,0,0,1,3.17-.8,5.76,5.76,0,0,1,4.19,1.57A6.27,6.27,0,0,1,45.28,18l0,.87a6.65,6.65,0,0,1-1.63,4.68,5.66,5.66,0,0,1-4.37,1.76,5.7,5.7,0,0,1-4.38-1.75,6.77,6.77,0,0,1-1.64-4.78Zm3.39.24a4.78,4.78,0,0,0,.68,2.77,2.45,2.45,0,0,0,3.87,0,5.2,5.2,0,0,0,.69-3,4.72,4.72,0,0,0-.69-2.75,2.25,2.25,0,0,0-1.95-1,2.2,2.2,0,0,0-1.92,1A5.26,5.26,0,0,0,36.68,18.81Z"/><path class="cls-2" d="M54.52,15.53a8.19,8.19,0,0,0-1.22-.1,2.49,2.49,0,0,0-2.52,1.3V25H47.39V12.35h3.2l.1,1.51a3.14,3.14,0,0,1,2.82-1.74,3.55,3.55,0,0,1,1.05.15Z"/><path class="cls-2" d="M61.76,25.26a6.23,6.23,0,0,1-4.54-1.71A6.06,6.06,0,0,1,55.47,19v-.33a7.54,7.54,0,0,1,.74-3.42,5.36,5.36,0,0,1,2.09-2.32,5.88,5.88,0,0,1,3.08-.81,5.25,5.25,0,0,1,4.1,1.64A6.63,6.63,0,0,1,67,18.41v1.38H58.9a3.14,3.14,0,0,0,1,2,3,3,0,0,0,2.09.75A3.65,3.65,0,0,0,65,21.12L66.71,23a5.07,5.07,0,0,1-2.07,1.68A6.78,6.78,0,0,1,61.76,25.26Zm-.39-10.41a2.09,2.09,0,0,0-1.63.68,3.46,3.46,0,0,0-.8,2h4.71v-.27A2.57,2.57,0,0,0,63,15.46,2.2,2.2,0,0,0,61.37,14.85Z"/></g></g></svg>