<svg xmlns="http://www.w3.org/2000/svg" width="199" height="300.5" viewBox="0 0 199 300.5"><defs><style>.cls-1{fill:none;stroke:#fff;stroke-miterlimit:10;stroke-width:2px;}.cls-2{fill:#2e3192;}.cls-3{fill:#fff;}.cls-4{fill:red;}</style></defs><title>Asset 2</title><g id="Layer_2" data-name="Layer 2"><g id="Layer_3" data-name="Layer 3"><path class="cls-1" d="M98.53,1V67.88c0,9-.73,15.74-8.31,23.31-6.41,6.41-14,9.19-23.75,9.19A25.67,25.67,0,0,1,51.17,96a34.7,34.7,0,0,1-9.62-9.91L58,69.19c.29,2.62,1.75,6.27,3.5,7.72a8.83,8.83,0,0,0,4.8,1.75,7.31,7.31,0,0,0,4.38-1.6c2.18-2,2.62-6.85,2.62-9.76V1Z"/><path class="cls-1" d="M99,99.75h16.72l20.12,53,21.3-53h25.78l14.9,99.37H172l-7.3-57.21-24,57.21H130.46l-22.94-57.21L98,199.41"/><path class="cls-1" d="M38.92,268.84c5.27,5,13.26,9.7,21.81,9.7,5,0,8-1.57,9.55-3.28a8.49,8.49,0,0,0,2.43-6,7.45,7.45,0,0,0-2.71-5.7c-2.43-2.14-6.13-3.14-12.26-5l-6.42-2c-4-1.28-9.84-3.42-13.69-7.69-4.85-5.28-5.42-12-5.42-16.83,0-11.69,4.57-18.82,8.7-22.95,4.85-4.85,12.83-9,24.38-9,9.41,0,20.39,3,29.37,7.7l-9.83,19.25c-7.42-5.85-13-6.42-16.26-6.42a11.84,11.84,0,0,0-8.13,2.86A7,7,0,0,0,58,228.64a6.37,6.37,0,0,0,1.28,4.28c.72.85,2.43,2.56,8.27,4.28l7.56,2.27c6,1.86,12.26,4,17.25,9.42,4.85,5.13,6.13,10.4,6.13,17,0,8.7-2.14,17.11-9,23.95-8.13,8.13-18,9.7-28.09,9.7a50.7,50.7,0,0,1-18.67-3.14,66.56,66.56,0,0,1-14.41-7.55Z"/><rect class="cls-2" x="99" width="100" height="99"/><rect class="cls-3" y="98.87" width="99" height="101.13"/><rect class="cls-4" x="99" y="200" width="100" height="99"/></g></g></svg>