<svg height="103.17" viewBox="0 0 258.3 103.17" width="258.3" xmlns="http://www.w3.org/2000/svg"><path d="m0 0h92.77v103.17h-92.77z" fill="#6abd45"/><path d="m86.44.06h86.68v101.87h-86.68z" fill="#f6eb16"/><path d="m171.62.06h86.68v101.87h-86.68z" fill="#ed2024"/><g fill="#fff"><path d="m66.83 91.58v-1.36c0-.44.25-.61.65-.61h.67c.78 0 .88-.33.88-1.17 0-.32 0-.74 0-1.28v-7.73c0-.84 0-1.68 1.26-1.68h1c1.26 0 1.26.84 1.26 1.68v9.95c0 2.67-1.32 3.38-3.38 3.38-1.56 0-2.34-.1-2.34-1.18z"/><path d="m86.21 91.61c0 1-.65 1-1.85 1h-1.11c-1.3 0-.65-3.15-1.49-3.15h-1.68c-.84 0-.36 3.15-1.62 3.15h-1c-1.09 0-1.74-.09-1.74-1 0-1.26.51-2.38 2.14-12.18.17-1.05.59-1.68 1.43-1.68h3.23c.84 0 1.26.63 1.47 1.68 1.44 8.57 2.22 10.92 2.22 12.18zm-6.11-5.61c0 .34.15.34.82.34s.82 0 .82-.32a2.19 2.19 0 0 0 0-.33c-.26-2.06-.34-4.6-.8-4.6s-.59 2.52-.8 4.6a1.84 1.84 0 0 0 -.04.31z"/><path d="m97.44 78.92c.47-1.09 1-1.17 1.71-1.17h1.13c1.26 0 1.26.84 1.26 1.68v11.57c0 .84 0 1.68-1.26 1.68h-1c-1.28-.02-1.28-.86-1.28-1.68v-5.8c0-.12 0-.21-.11-.21s-.12.09-.18.21c-1.5 3-1.54 3.68-2.23 3.68s-.76-.72-2.23-3.68c-.06-.12-.14-.21-.18-.21s-.11.09-.11.21v5.8c0 .84 0 1.68-1.26 1.68h-1c-1.26 0-1.26-.84-1.26-1.68v-11.57c0-.84 0-1.68 1.26-1.68h1.11a1.55 1.55 0 0 1 1.73 1.17l1.46 3.72c.17.38.27.59.42.59s.25-.21.42-.59z"/><path d="m115.17 91.61c0 1-.65 1-1.85 1h-1.11c-1.3 0-.65-3.15-1.49-3.15h-1.72c-.84 0-.36 3.15-1.62 3.15h-1c-1.09 0-1.74-.09-1.74-1 0-1.26.51-2.38 2.14-12.18.17-1.05.59-1.68 1.43-1.68h3.23c.84 0 1.26.63 1.47 1.68 1.48 8.57 2.26 10.92 2.26 12.18zm-6.11-5.61c0 .34.15.34.82.34s.82 0 .82-.32a2.19 2.19 0 0 0 0-.33c-.26-2.06-.34-4.6-.8-4.6s-.59 2.52-.8 4.6a1.84 1.84 0 0 0 -.04.31z"/><path d="m121.89 91c0 .84 0 1.68-1.26 1.68h-1c-1.26 0-1.26-.84-1.26-1.68v-11.57c0-.84 0-1.68 1.26-1.68h1c1.26 0 1.26.84 1.26 1.68z"/><path d="m131.46 77.64c.53 0 .8.26.8.68v1.84c0 .21 0 .53-.8.53-.42 0-.44 0-.67 0-2 0-2 3.63-2 4.38s0 4.62 1.91 4.62h.75c.8 0 .8.76.8 1v1.31a.7.7 0 0 1 -.8.78c-3 0-6.44-1.36-6.44-7.77-.01-6.01 3.47-7.37 6.45-7.37z"/><path d="m145.81 91.61c0 1-.65 1-1.85 1h-1.11c-1.31 0-.65-3.15-1.49-3.15h-1.68c-.84 0-.36 3.15-1.62 3.15h-1c-1.09 0-1.74-.09-1.74-1 0-1.26.5-2.38 2.14-12.18.17-1.05.59-1.68 1.43-1.68h3.23c.84 0 1.26.63 1.47 1.68 1.41 8.57 2.22 10.92 2.22 12.18zm-6.11-5.61c0 .34.14.34.82.34s.81 0 .81-.32a2.19 2.19 0 0 0 0-.33c-.25-2.06-.33-4.6-.79-4.6s-.59 2.52-.8 4.6a1.84 1.84 0 0 0 -.04.31z"/><path d="m155.47 84.47c.06 0 .1-.07.1-.21v-4.83c0-.84 0-1.68 1.26-1.68h1c1.26 0 1.26.84 1.26 1.68v11.57c0 .84 0 1.68-1.26 1.68-1.89 0-2-.34-2.33-1l-2.79-6.07c-.06-.12-.13-.21-.17-.21s-.08.09-.08.21v5.36c0 .84 0 1.68-1.26 1.68h-1.05c-1.15.01-1.15-.83-1.15-1.65v-11.57c0-.84 0-1.68 1.26-1.68h1.11c.69 0 .92.08 1.24.73l2.71 5.78c.02.14.08.21.15.21z"/><path d="m180.61 92c0 .37-.33.63-1.09.63h-1.09c-1.35 0-1.43-.3-1.89-1.66-.95-2.75-1.3-4.64-1.91-4.64-.13 0-.17.19-.17.46s0 .65 0 1v3.21c0 .84 0 1.68-1.26 1.68h-1.05c-1.26 0-1.26-.84-1.26-1.68v-11.57c0-.84 0-1.68 1.26-1.68h1.05c1.26 0 1.26.84 1.26 1.68 0 3.71 0 3.71.11 3.71.63 0 1.21-2.47 1.42-3 .7-1.66.76-2.41 1.83-2.41h1.22c.71 0 1.3 0 1.3.59a2.59 2.59 0 0 1 -.36 1.11c-.67 1.38-2.52 4.7-2.52 4.83a2.41 2.41 0 0 0 .24.52c.24.49 2.85 6.22 2.91 7.22z"/><path d="m187.44 91c0 .84 0 1.68-1.26 1.68h-1.05c-1.26 0-1.26-.84-1.26-1.68v-11.57c0-.84 0-1.68 1.26-1.68h1.05c1.26 0 1.26.84 1.26 1.68z"/><path d="m196.24 91.12c-.05.8-.09 1.54-1.26 1.54h-1c-1.26 0-1.26-.84-1.26-1.68v-9.6c0-.52-.11-.65-.55-.65h-.61c-.52 0-.94-.08-.94-.59v-1.76c0-.42.46-.63 1-.63h5.8c.52 0 1 .21 1 .63v1.78c0 .51-.42.59-1 .59h-.59c-.52 0-.56.13-.56.65z"/><path d="m207.72 77.64c.53 0 .8.26.8.68v1.84c0 .21 0 .53-.8.53-.42 0-.44 0-.67 0-2 0-2 3.63-2 4.38s0 4.62 1.91 4.62h.75c.8 0 .8.76.8 1v1.31a.7.7 0 0 1 -.8.78c-3 0-6.44-1.36-6.44-7.77.01-6.01 3.47-7.37 6.45-7.37z"/><path d="m215.3 82.05c0 1.16 0 1.16 1.16 1.16s1.15 0 1.15-1.09v-2.69c0-.84 0-1.68 1.26-1.68h1c1.26 0 1.26.84 1.26 1.68v11.57c0 .84 0 1.68-1.26 1.68h-1c-1.26 0-1.26-.84-1.26-1.68v-3.17c0-1.39-.08-1.47-1.15-1.47h-.23c-.67 0-.93 0-.93 1.07v3.57c0 .84 0 1.68-1.26 1.68h-1c-1.26 0-1.26-.84-1.26-1.68v-11.57c0-.84 0-1.68 1.26-1.68h1c1.26 0 1.26.84 1.26 1.68z"/><path d="m228.05 88.81a.81.81 0 0 0 .88.7c1.2 0 1.6-.05 2-.05.88 0 1.15.26 1.15.89v1.47c0 .63-.21.84-.84.84h-5.54c-1.26 0-1.26-1.26-1.26-1.68v-11.55c0-.84 0-1.68 1.26-1.68h5.42c.52 0 1 .21 1 .63v1.78c0 .51-.42.53-1 .53-.82 0-1.47 0-2 0-1.16 0-1.16.42-1.16 1.09 0 1.36 0 1.72 1 1.72h2c.73 0 .77.73.77 1v1.35c0 .63-.44.67-1 .67-1.07 0-1.75 0-2.19 0-.67 0-.67.29-.67 1z"/><path d="m241.91 84.47c.06 0 .11-.07.11-.21v-4.83c0-.84 0-1.68 1.26-1.68h1c1.26 0 1.26.84 1.26 1.68v11.57c0 .84 0 1.68-1.26 1.68-1.88 0-2-.34-2.33-1l-2.79-6.07c-.06-.12-.12-.21-.17-.21s-.08.09-.08.21l.09 5.39c0 .84 0 1.68-1.26 1.68h-1.05c-1.26 0-1.26-.84-1.26-1.68v-11.57c0-.84 0-1.68 1.26-1.68h1.11c.7 0 .93.08 1.24.73l2.71 5.78c.03.14.1.21.16.21z"/></g><text style="font-size:72;fill:none;stroke:#fff;stroke-miterlimit:10;stroke-width:3;font-family:HWTArtz, HWT Artz;letter-spacing:.04em" transform="translate(10.16 70.27)">pimento</text></svg>